<?xml version="1.0" standalone="no"?>
<!DOCTYPE svg PUBLIC "-//W3C//DTD SVG 20010904//EN"
 "http://www.w3.org/TR/2001/REC-SVG-20010904/DTD/svg10.dtd">
<svg version="1.0" xmlns="http://www.w3.org/2000/svg"
 width="2048.000000pt" height="2048.000000pt" viewBox="0 0 2048.000000 2048.000000"
 preserveAspectRatio="xMidYMid meet">
<metadata>
Created by potrace 1.11, written by Peter Selinger 2001-2013
</metadata>
<g transform="translate(0.000000,2048.000000) scale(0.100000,-0.100000)"
fill="#000000" stroke="none">
<path d="M3537 17814 c-2 -5 -8 -616 -11 -1359 -6 -1358 -21 -3702 -31 -4890
-3 -352 -7 -1198 -10 -1880 -3 -682 -8 -1401 -11 -1597 -3 -200 -1 -358 4
-358 4 0 62 28 128 63 65 35 182 96 259 137 77 40 172 89 210 110 39 21 118
63 178 94 270 141 327 171 402 211 44 23 118 62 165 86 47 23 99 53 115 65 17
11 116 66 220 121 105 55 226 120 270 143 44 23 125 66 180 95 159 83 575 305
630 335 28 15 100 53 160 85 61 32 137 72 170 90 33 18 101 54 150 80 50 26
122 64 160 85 39 21 183 97 320 170 138 73 264 140 280 150 17 9 93 50 170 90
77 40 154 80 170 90 17 10 73 40 125 68 52 27 235 124 405 215 l310 165 660 9
c363 6 665 8 672 6 17 -6 24 -32 15 -50 -5 -8 -91 -54 -193 -102 -101 -48
-229 -113 -284 -145 -55 -32 -116 -68 -135 -78 -36 -21 -625 -364 -1655 -963
-319 -186 -782 -456 -1030 -600 -247 -144 -974 -567 -1615 -940 -641 -373
-1238 -721 -1328 -773 -144 -83 -161 -96 -145 -107 119 -82 1261 -819 1275
-823 11 -2 218 101 535 268 566 299 2704 1426 4133 2180 498 262 1038 546
1200 630 162 84 303 160 314 169 16 14 93 17 677 24 700 9 689 10 689 -37 -1
-41 -47 -74 -250 -181 -497 -261 -703 -374 -1140 -625 -256 -147 -1153 -662
-1995 -1145 -841 -483 -1708 -980 -1925 -1105 -1388 -796 -1264 -722 -1239
-741 12 -9 101 -61 198 -116 630 -357 1217 -697 1227 -711 11 -16 18 -14 81
20 37 20 1218 641 2623 1381 1405 739 2582 1360 2615 1379 33 19 215 115 405
213 190 98 356 186 370 196 23 16 74 18 687 25 526 5 666 4 678 -6 36 -30 1
-90 -53 -90 -13 0 -38 -11 -55 -24 -18 -13 -468 -275 -1002 -582 -533 -306
-1505 -865 -2160 -1242 -654 -376 -1637 -941 -2182 -1255 -546 -314 -993 -575
-993 -582 0 -12 1113 -683 1493 -900 l239 -136 3211 1852 c1767 1019 3219
1858 3228 1866 13 11 14 25 6 90 -5 43 -6 301 -3 578 10 756 30 2176 41 2935
3 184 10 666 15 1070 5 404 12 881 15 1060 3 179 10 660 15 1070 5 410 12 882
15 1050 3 168 12 836 20 1485 9 649 19 1322 24 1495 4 173 7 316 7 316 -1 2
-4146 13 -7336 19 -1422 3 -3303 8 -4181 11 -900 4 -1599 3 -1602 -2z m2553
-1769 c58 -8 125 -19 150 -25 25 -6 60 -13 78 -16 18 -4 35 -11 38 -15 3 -5
16 -9 29 -9 13 0 27 -4 30 -10 3 -5 14 -10 23 -10 10 0 44 -13 77 -30 33 -16
67 -30 75 -30 9 0 22 -9 30 -20 8 -11 22 -20 32 -20 10 0 18 -4 18 -10 0 -5 8
-10 18 -10 10 0 24 -9 32 -20 8 -11 21 -20 28 -20 8 0 27 -13 42 -30 15 -16
33 -30 39 -30 11 0 151 -137 216 -211 41 -47 115 -155 115 -168 0 -6 3 -11 8
-11 4 0 18 -25 32 -55 14 -30 28 -55 33 -55 4 0 7 -11 7 -25 0 -14 5 -25 10
-25 6 0 10 -11 10 -25 0 -14 5 -25 10 -25 6 0 10 -13 10 -30 0 -16 5 -30 10
-30 6 0 10 -16 10 -35 0 -19 5 -35 10 -35 6 0 10 -22 10 -50 0 -27 4 -50 9
-50 5 0 12 -42 15 -92 3 -51 8 -119 12 -152 4 -37 2 -62 -5 -69 -6 -6 -11 -50
-11 -103 0 -51 -4 -96 -10 -99 -5 -3 -10 -26 -10 -51 0 -24 -4 -44 -10 -44 -5
0 -10 -18 -10 -40 0 -22 -4 -40 -10 -40 -5 0 -10 -13 -10 -30 0 -16 -4 -30
-10 -30 -5 0 -10 -13 -10 -30 0 -16 -4 -30 -10 -30 -5 0 -10 -9 -10 -20 0 -11
-4 -20 -10 -20 -5 0 -10 -9 -10 -20 0 -11 -4 -20 -10 -20 -5 0 -10 -9 -10 -20
0 -11 -4 -20 -10 -20 -5 0 -10 -5 -10 -10 0 -12 -97 -159 -115 -175 -6 -5 -23
-26 -37 -45 -38 -51 -164 -180 -177 -180 -6 0 -11 -4 -11 -10 0 -5 -5 -10 -11
-10 -6 0 -24 -13 -39 -30 -15 -16 -34 -30 -42 -30 -7 0 -20 -9 -28 -20 -8 -11
-20 -20 -28 -20 -7 0 -20 -7 -29 -15 -8 -9 -28 -19 -44 -22 -16 -3 -29 -9 -29
-14 0 -5 -9 -9 -20 -9 -11 0 -20 -4 -20 -10 0 -5 -9 -10 -20 -10 -11 0 -20 -4
-20 -10 0 -5 -9 -10 -20 -10 -11 0 -20 -4 -20 -10 0 -5 -13 -10 -30 -10 -16 0
-30 -4 -30 -10 0 -5 -13 -10 -29 -10 -17 0 -33 -4 -36 -10 -3 -5 -19 -10 -35
-10 -16 0 -32 -4 -35 -10 -3 -5 -25 -10 -49 -10 -23 0 -46 -4 -51 -9 -20 -18
-152 -23 -807 -27 l-668 -4 0 1415 0 1415 643 0 c513 0 663 -3 747 -15z m2390
-1400 l0 -1415 -335 0 -335 0 0 1415 0 1415 335 0 335 0 0 -1415z m1760 0 l0
-1415 -330 0 -330 0 0 563 c0 531 -4 615 -27 581 -7 -10 -29 -17 -110 -31 -18
-3 -33 -9 -33 -14 0 -5 -13 -9 -30 -9 -16 0 -30 -4 -30 -10 0 -5 -13 -10 -30
-10 -16 0 -30 -4 -30 -10 0 -5 -13 -10 -30 -10 -16 0 -30 -4 -30 -10 0 -5 -13
-10 -30 -10 -16 0 -30 -4 -30 -10 0 -5 -16 -10 -35 -10 -19 0 -35 -4 -35 -10
0 -5 -16 -10 -35 -10 -19 0 -35 -4 -35 -10 0 -5 -13 -10 -30 -10 -16 0 -30 -4
-30 -10 0 -5 -13 -10 -29 -10 -17 0 -33 -4 -36 -10 -3 -5 -19 -10 -36 -10 -16
0 -29 -4 -29 -10 0 -5 -13 -10 -30 -10 -16 0 -30 -4 -30 -10 0 -5 -13 -10 -30
-10 l-30 0 0 345 0 345 30 0 c17 0 30 5 30 10 0 6 14 10 30 10 17 0 30 5 30
10 0 6 13 10 29 10 17 0 33 5 36 10 3 6 17 10 31 10 13 0 24 5 24 10 0 6 16
10 35 10 19 0 35 5 35 10 0 6 14 10 30 10 17 0 30 5 30 10 0 6 14 10 30 10 17
0 30 5 30 10 0 6 18 10 40 10 22 0 40 5 40 10 0 6 14 10 30 10 17 0 30 5 30
10 0 6 14 10 30 10 17 0 30 5 30 10 0 6 14 10 30 10 17 0 30 5 30 10 0 6 14
10 30 10 17 0 30 5 30 10 0 6 14 10 30 10 17 0 30 4 30 9 0 5 10 11 23 13 l22
3 3 493 2 492 330 0 330 0 0 -1415z m2810 1125 l0 -290 -1095 0 -1095 0 0 290
0 290 1095 0 1095 0 0 -290z m1378 265 c7 -14 16 -35 21 -47 5 -13 23 -54 40
-91 17 -37 31 -71 31 -76 0 -4 16 -40 35 -80 19 -39 35 -75 35 -79 0 -13 65
-157 73 -160 4 -2 7 -12 7 -22 0 -10 5 -22 10 -25 6 -3 10 -17 10 -31 0 -13 5
-24 10 -24 6 0 10 -9 10 -20 0 -11 5 -20 10 -20 6 0 10 -11 10 -25 0 -14 5
-25 10 -25 6 0 10 -11 10 -25 0 -14 5 -25 10 -25 6 0 10 -9 10 -20 0 -11 5
-20 10 -20 6 0 10 -11 10 -25 0 -14 5 -25 10 -25 6 0 10 -11 10 -25 0 -14 5
-25 10 -25 6 0 10 -11 10 -25 0 -14 5 -25 10 -25 6 0 10 -9 10 -20 0 -11 5
-20 10 -20 6 0 10 -13 10 -30 0 -16 5 -30 10 -30 6 0 10 -9 10 -20 0 -11 5
-20 10 -20 6 0 10 -9 10 -20 0 -11 5 -20 10 -20 6 0 10 -11 10 -24 0 -14 5
-28 10 -31 6 -3 10 -15 10 -26 0 -10 5 -19 10 -19 6 0 10 -9 10 -19 0 -11 5
-23 10 -26 6 -3 10 -17 10 -31 0 -13 5 -24 10 -24 6 0 10 -7 10 -15 0 -8 4
-23 9 -33 39 -77 51 -106 51 -123 0 -10 5 -19 10 -19 6 0 10 -6 10 -13 0 -7 9
-32 20 -55 11 -22 20 -48 20 -57 0 -8 3 -15 8 -15 4 0 13 -16 20 -35 6 -19 18
-51 24 -70 7 -19 16 -35 20 -35 5 0 8 -7 8 -16 0 -9 14 -43 30 -76 17 -32 30
-63 30 -68 0 -9 57 -138 81 -182 5 -10 9 -25 9 -33 0 -8 5 -15 10 -15 6 0 10
-9 10 -20 0 -11 9 -35 20 -55 11 -20 20 -42 20 -50 0 -8 5 -15 10 -15 6 0 10
-13 10 -30 0 -16 5 -30 10 -30 6 0 10 -9 10 -20 0 -11 5 -20 10 -20 6 0 10 -9
10 -20 0 -11 5 -20 10 -20 6 0 10 -13 10 -30 0 -16 5 -30 10 -30 6 0 10 -9 10
-20 0 -11 5 -20 10 -20 6 0 10 -9 10 -19 0 -11 5 -23 10 -26 6 -3 10 -17 10
-31 0 -13 5 -24 10 -24 6 0 10 -7 10 -15 0 -8 9 -30 20 -50 11 -20 20 -44 20
-55 0 -20 -12 -20 -1035 -20 -596 0 -1035 4 -1035 9 0 5 20 58 45 117 25 60
45 115 45 122 0 6 4 12 8 12 5 0 15 23 22 50 7 28 16 50 20 50 4 0 13 23 20
50 7 28 16 50 20 50 4 0 13 23 20 50 7 28 17 50 22 50 4 0 8 9 8 20 0 20 7 20
455 20 421 0 480 3 445 25 -5 3 -10 17 -10 31 0 13 -4 24 -10 24 -5 0 -10 11
-10 25 0 14 -4 25 -10 25 -5 0 -10 11 -10 25 0 14 -4 25 -10 25 -5 0 -10 11
-10 25 0 14 -4 25 -10 25 -5 0 -10 6 -10 13 0 7 -9 32 -20 55 -11 22 -20 48
-20 57 0 8 -4 15 -8 15 -5 0 -15 23 -22 50 -7 28 -16 50 -20 50 -4 0 -13 23
-20 50 -7 28 -16 50 -20 50 -3 0 -12 21 -19 48 -8 26 -17 52 -21 57 -4 6 -24
53 -44 105 -21 52 -44 109 -51 125 -7 17 -25 59 -40 95 -15 36 -35 84 -46 108
-10 23 -19 49 -19 57 0 8 -4 15 -10 15 -5 0 -10 9 -10 19 0 11 -4 23 -10 26
-5 3 -10 17 -10 31 0 13 -4 24 -10 24 -5 0 -10 9 -10 20 0 11 -4 20 -10 20 -5
0 -10 14 -10 30 0 17 -4 30 -10 30 -5 0 -10 9 -10 20 0 11 -3 20 -6 20 -13 0
-34 -30 -34 -49 0 -12 -4 -21 -10 -21 -5 0 -10 -11 -10 -25 0 -14 -4 -25 -8
-25 -5 0 -15 -22 -22 -50 -7 -27 -16 -50 -20 -50 -3 0 -12 -21 -20 -47 -7 -27
-20 -54 -27 -61 -7 -7 -13 -20 -13 -27 0 -8 -11 -38 -24 -67 -13 -29 -38 -89
-56 -133 -41 -101 -59 -145 -71 -167 -5 -10 -9 -25 -9 -33 0 -8 -4 -15 -10
-15 -5 0 -10 -11 -10 -24 0 -14 -4 -28 -10 -31 -5 -3 -10 -15 -10 -26 0 -10
-4 -19 -10 -19 -5 0 -10 -11 -10 -24 0 -14 -4 -28 -10 -31 -5 -3 -10 -15 -10
-26 0 -10 -4 -19 -8 -19 -5 0 -15 -22 -22 -50 -7 -27 -16 -50 -20 -50 -4 0
-13 -22 -20 -50 -7 -27 -17 -50 -22 -50 -4 0 -8 -11 -8 -25 0 -14 -4 -25 -10
-25 -5 0 -10 -11 -10 -25 0 -14 -4 -25 -10 -25 -5 0 -10 -9 -10 -19 0 -11 -4
-23 -10 -26 -5 -3 -10 -17 -10 -31 0 -13 -4 -24 -10 -24 -5 0 -10 -11 -10 -25
0 -14 -4 -25 -10 -25 -5 0 -10 -11 -10 -25 0 -14 -4 -25 -10 -25 -5 0 -10 -11
-10 -25 0 -14 -4 -25 -10 -25 -5 0 -10 -11 -10 -25 0 -14 -4 -25 -10 -25 -5 0
-10 -11 -10 -25 0 -14 -4 -25 -10 -25 -5 0 -10 -13 -10 -30 0 -16 -4 -30 -10
-30 -5 0 -10 -9 -10 -20 0 -11 -4 -20 -10 -20 -5 0 -10 -13 -10 -30 0 -16 -4
-30 -10 -30 -5 0 -10 -9 -10 -20 0 -11 -4 -20 -8 -20 -4 0 -14 -21 -21 -47 -8
-25 -20 -58 -27 -72 -7 -14 -17 -38 -23 -53 l-11 -28 -340 0 c-296 0 -340 2
-340 15 0 8 5 15 10 15 6 0 10 11 10 25 0 14 5 25 10 25 6 0 10 11 10 25 0 14
5 25 10 25 6 0 10 11 10 25 0 14 5 25 10 25 6 0 10 9 10 20 0 11 5 20 10 20 6
0 10 14 10 30 0 17 5 30 10 30 6 0 10 9 10 20 0 11 5 20 10 20 6 0 10 9 10 20
0 11 5 20 10 20 6 0 10 14 10 30 0 17 5 30 10 30 6 0 10 9 10 20 0 11 5 20 10
20 6 0 10 7 10 15 0 8 10 36 21 62 12 27 26 59 32 73 5 14 15 36 23 50 7 14
22 50 34 80 12 30 35 87 52 125 17 39 39 89 49 112 11 24 19 50 19 58 0 8 5
15 10 15 6 0 10 6 10 13 0 7 9 32 20 55 11 22 20 48 20 57 0 8 5 15 10 15 6 0
10 7 10 15 0 8 5 24 10 35 6 11 15 29 20 40 6 11 10 27 10 35 0 8 5 15 10 15
6 0 10 11 10 25 0 14 5 25 10 25 6 0 10 9 10 19 0 11 5 23 10 26 6 3 10 15 10
26 0 10 5 19 10 19 6 0 10 11 10 25 0 14 5 25 10 25 6 0 10 11 10 25 0 14 5
25 10 25 6 0 10 11 10 25 0 14 5 25 10 25 6 0 10 9 10 20 0 11 5 20 10 20 6 0
10 14 10 30 0 17 5 30 10 30 6 0 10 9 10 20 0 11 5 20 10 20 6 0 10 9 10 20 0
11 5 20 10 20 6 0 10 14 10 30 0 17 5 30 10 30 6 0 10 9 10 20 0 11 5 20 10
20 6 0 10 11 10 25 0 14 5 25 10 25 6 0 10 11 10 25 0 14 5 25 10 25 6 0 10
11 10 25 0 14 3 25 8 25 6 0 16 19 42 85 17 44 29 73 59 138 17 37 31 72 31
77 0 5 15 42 34 82 43 90 69 152 87 201 7 20 17 37 21 37 4 0 8 9 8 20 0 11 4
28 9 38 5 9 20 41 33 69 l23 53 306 0 306 0 11 -25z m-2078 -1440 l0 -295
-415 0 -415 0 0 -535 0 -535 -330 0 -330 0 0 830 0 830 745 0 745 0 0 -295z"/>
<path d="M5370 14656 c0 -760 2 -844 16 -850 23 -9 434 -5 544 5 146 13 190
20 190 30 0 5 9 9 19 9 21 0 138 57 159 77 7 7 16 13 20 13 17 0 152 142 152
160 0 5 5 10 10 10 6 0 10 7 10 15 0 8 5 15 10 15 6 0 10 9 10 20 0 11 5 20
10 20 6 0 10 9 10 20 0 11 5 20 10 20 6 0 10 9 10 20 0 11 5 20 10 20 6 0 10
14 10 30 0 17 5 30 10 30 6 0 10 14 10 30 0 17 5 30 10 30 6 0 10 18 10 40 0
22 5 40 10 40 6 0 10 27 10 60 0 36 4 60 11 60 7 0 9 32 5 98 -7 140 -17 212
-27 212 -5 0 -9 18 -9 40 0 22 -4 40 -10 40 -5 0 -10 11 -10 25 0 14 -4 25
-10 25 -5 0 -10 11 -10 25 0 14 -4 25 -10 25 -5 0 -10 7 -10 15 0 8 -4 15 -10
15 -5 0 -10 7 -10 15 0 8 -4 15 -10 15 -5 0 -10 6 -10 14 0 14 -110 131 -160
171 -35 28 -191 105 -212 105 -10 0 -18 5 -18 10 0 6 -13 10 -29 10 -17 0 -33
5 -36 10 -3 6 -21 10 -39 10 -17 0 -36 4 -42 9 -17 16 -105 23 -356 27 l-248
5 0 -845z"/>
</g>
</svg>
